<?xml version="1.0" encoding="UTF-8" standalone="no"?>
<!DOCTYPE svg PUBLIC "-//W3C//DTD SVG 1.1//EN" "http://www.w3.org/Graphics/SVG/1.1/DTD/svg11.dtd">
<svg version="1.1" xmlns="http://www.w3.org/2000/svg" xmlns:xlink="http://www.w3.org/1999/xlink" preserveAspectRatio="xMidYMid meet" viewBox="0 0 200 300" width="200" height="300"><defs><path d="M211.22 -2C211.22 -2 211.22 -2 211.22 -2C211.22 179.2 211.22 279.87 211.22 300C211.22 300 211.22 300 211.22 300C90.02 300 22.69 300 9.22 300C9.22 300 9.22 300 9.22 300C9.22 118.8 9.22 18.13 9.22 -2C9.22 -2 9.22 -2 9.22 -2C130.42 -2 197.76 -2 211.22 -2Z" id="et2pJa0QV"></path><path d="M130 70C130 86.57 116.57 100 100 100C83.43 100 70 86.57 70 70C70 53.43 83.43 40 100 40C116.57 40 130 53.43 130 70Z" id="dekyOPoDd"></path><path d="M40.36 250L40 20" id="b3A4WBl47m"></path><path d="M100 20L40 20" id="ai9wj3mse"></path><path d="M100 40L100.36 20" id="c1bybQqIdT"></path><path d="M16.79 250L176.79 250" id="boq4S9dJ2"></path><path d="M99.64 100L100 180" id="b17olqvd2t"></path></defs><g><g><g><use xlink:href="#et2pJa0QV" opacity="1" fill="#ffffff" fill-opacity="1"></use><g><use xlink:href="#et2pJa0QV" opacity="1" fill-opacity="0" stroke="#000000" stroke-width="1" stroke-opacity="0"></use></g></g><g><use xlink:href="#dekyOPoDd" opacity="1" fill="#ffffff" fill-opacity="1"></use><g><use xlink:href="#dekyOPoDd" opacity="1" fill-opacity="0" stroke="#000000" stroke-width="1.5" stroke-opacity="1"></use></g></g><g><use xlink:href="#b3A4WBl47m" opacity="1" fill="#000000" fill-opacity="0"></use><g><use xlink:href="#b3A4WBl47m" opacity="1" fill-opacity="0" stroke="#000000" stroke-width="1.5" stroke-opacity="1"></use></g></g><g><use xlink:href="#ai9wj3mse" opacity="1" fill="#000000" fill-opacity="0"></use><g><use xlink:href="#ai9wj3mse" opacity="1" fill-opacity="0" stroke="#000000" stroke-width="1.5" stroke-opacity="1"></use></g></g><g><use xlink:href="#c1bybQqIdT" opacity="1" fill="#000000" fill-opacity="0"></use><g><use xlink:href="#c1bybQqIdT" opacity="1" fill-opacity="0" stroke="#000000" stroke-width="1.5" stroke-opacity="1"></use></g></g><g><use xlink:href="#boq4S9dJ2" opacity="1" fill="#000000" fill-opacity="0"></use><g><use xlink:href="#boq4S9dJ2" opacity="1" fill-opacity="0" stroke="#000000" stroke-width="1.5" stroke-opacity="1"></use></g></g><g><use xlink:href="#b17olqvd2t" opacity="1" fill="#000000" fill-opacity="0"></use><g><use xlink:href="#b17olqvd2t" opacity="1" fill-opacity="0" stroke="#000000" stroke-width="1.5" stroke-opacity="1"></use></g></g></g></g></svg>