<?xml version="1.0" encoding="UTF-8" standalone="no"?>
<!DOCTYPE svg PUBLIC "-//W3C//DTD SVG 1.1//EN" "http://www.w3.org/Graphics/SVG/1.1/DTD/svg11.dtd">
<svg version="1.1" xmlns="http://www.w3.org/2000/svg" xmlns:xlink="http://www.w3.org/1999/xlink" preserveAspectRatio="xMidYMid meet" viewBox="0 0 200 300" width="200" height="300"><defs><path d="M201 -1C201 -1 201 -1 201 -1C201 180.2 201 280.87 201 301C201 301 201 301 201 301C79.8 301 12.47 301 -1 301C-1 301 -1 301 -1 301C-1 119.8 -1 19.13 -1 -1C-1 -1 -1 -1 -1 -1C120.2 -1 187.53 -1 201 -1Z" id="bW4kxBq8R"></path><path d="M130 70C130 86.57 116.57 100 100 100C83.43 100 70 86.57 70 70C70 53.43 83.43 40 100 40C116.57 40 130 53.43 130 70Z" id="dekyOPoDd"></path><path d="M40.36 250L40 20" id="b3A4WBl47m"></path><path d="M100 20L40 20" id="ai9wj3mse"></path><path d="M100 40L100.36 20" id="c1bybQqIdT"></path><path d="M16.79 250L176.79 250" id="boq4S9dJ2"></path><path d="M99.64 100L100 180" id="b17olqvd2t"></path><path d="M100 180L130 225" id="b13pXO8D6B"></path><path d="M100 180L70 225" id="e4dIFSbEGg"></path><path d="M99.64 130L149.64 100" id="c7dbV3MxX"></path><path d="M99.64 130L50 100" id="aeD1gtSFx"></path><path d="M87.21 57.57L90.89 60.52L94.57 57.57L98.04 60.34L94.36 63.29L98.04 66.23L94.57 69L90.89 66.06L87.21 69L83.75 66.23L87.43 63.29L83.75 60.34L87.21 57.57Z" id="b121Q4l0HE"></path><path d="M87.21 57.57L90.89 60.52L94.57 57.57L98.04 60.34L94.36 63.29L98.04 66.23L94.57 69L90.89 66.06L87.21 69L83.75 66.23L87.43 63.29L83.75 60.34L87.21 57.57Z" id="f29fOTlV6g"></path><path d="M107.93 57.57L111.61 60.52L115.29 57.57L118.75 60.34L115.07 63.29L118.75 66.23L115.29 69L111.61 66.06L107.93 69L104.46 66.23L108.14 63.29L104.46 60.34L107.93 57.57Z" id="a1tUnVxJXR"></path></defs><g><g><g><use xlink:href="#bW4kxBq8R" opacity="1" fill="#ffffff" fill-opacity="1"></use><g><use xlink:href="#bW4kxBq8R" opacity="1" fill-opacity="0" stroke="#000000" stroke-width="1" stroke-opacity="0"></use></g></g><g><use xlink:href="#dekyOPoDd" opacity="1" fill="#ffffff" fill-opacity="1"></use><g><use xlink:href="#dekyOPoDd" opacity="1" fill-opacity="0" stroke="#000000" stroke-width="1.5" stroke-opacity="1"></use></g></g><g><use xlink:href="#b3A4WBl47m" opacity="1" fill="#000000" fill-opacity="0"></use><g><use xlink:href="#b3A4WBl47m" opacity="1" fill-opacity="0" stroke="#000000" stroke-width="1.5" stroke-opacity="1"></use></g></g><g><use xlink:href="#ai9wj3mse" opacity="1" fill="#000000" fill-opacity="0"></use><g><use xlink:href="#ai9wj3mse" opacity="1" fill-opacity="0" stroke="#000000" stroke-width="1.5" stroke-opacity="1"></use></g></g><g><use xlink:href="#c1bybQqIdT" opacity="1" fill="#000000" fill-opacity="0"></use><g><use xlink:href="#c1bybQqIdT" opacity="1" fill-opacity="0" stroke="#000000" stroke-width="1.5" stroke-opacity="1"></use></g></g><g><use xlink:href="#boq4S9dJ2" opacity="1" fill="#000000" fill-opacity="0"></use><g><use xlink:href="#boq4S9dJ2" opacity="1" fill-opacity="0" stroke="#000000" stroke-width="1.5" stroke-opacity="1"></use></g></g><g><use xlink:href="#b17olqvd2t" opacity="1" fill="#000000" fill-opacity="0"></use><g><use xlink:href="#b17olqvd2t" opacity="1" fill-opacity="0" stroke="#000000" stroke-width="1.5" stroke-opacity="1"></use></g></g><g><use xlink:href="#b13pXO8D6B" opacity="1" fill="#000000" fill-opacity="0"></use><g><use xlink:href="#b13pXO8D6B" opacity="1" fill-opacity="0" stroke="#000000" stroke-width="1.5" stroke-opacity="1"></use></g></g><g><use xlink:href="#e4dIFSbEGg" opacity="1" fill="#000000" fill-opacity="0"></use><g><use xlink:href="#e4dIFSbEGg" opacity="1" fill-opacity="0" stroke="#000000" stroke-width="1.5" stroke-opacity="1"></use></g></g><g><use xlink:href="#c7dbV3MxX" opacity="1" fill="#000000" fill-opacity="0"></use><g><use xlink:href="#c7dbV3MxX" opacity="1" fill-opacity="0" stroke="#000000" stroke-width="1.5" stroke-opacity="1"></use></g></g><g><use xlink:href="#aeD1gtSFx" opacity="1" fill="#000000" fill-opacity="0"></use><g><use xlink:href="#aeD1gtSFx" opacity="1" fill-opacity="0" stroke="#000000" stroke-width="1.5" stroke-opacity="1"></use></g></g><g><use xlink:href="#b121Q4l0HE" opacity="1" fill="#000000" fill-opacity="0"></use><g><use xlink:href="#b121Q4l0HE" opacity="1" fill-opacity="0" stroke="#000000" stroke-width="1.5" stroke-opacity="1"></use></g></g><g><use xlink:href="#f29fOTlV6g" opacity="1" fill="#000000" fill-opacity="0"></use><g><use xlink:href="#f29fOTlV6g" opacity="1" fill-opacity="0" stroke="#000000" stroke-width="1.5" stroke-opacity="1"></use></g></g><g><use xlink:href="#a1tUnVxJXR" opacity="1" fill="#000000" fill-opacity="0"></use><g><use xlink:href="#a1tUnVxJXR" opacity="1" fill-opacity="0" stroke="#000000" stroke-width="1.5" stroke-opacity="1"></use></g></g></g></g></svg>